
<svg xmlns="http://www.w3.org/2000/svg" viewBox="0 0 120 51.5" width="120" height="51.5">
  <path d="M38.6 26.3c-.7-4.2 3.5-6.2 3.6-6.3-2-2.8-5-3.2-6.1-3.3-2.6-.2-5 1.5-6.3 1.5-1.3 0-3.3-1.5-5.4-1.4-2.8 0-5.3 1.6-6.8 4-2.8 5-.7 12.4 2.1 16.5 1.4 2 3 4.2 5.2 4.2 2.1-.1 2.9-1.3 5.4-1.3s3.3 1.3 5.5 1.3c2.3 0 3.7-2 5.1-4 1.6-2.3 2.3-4.5 2.3-4.6 0-.1-4.6-1.8-4.6-6.6M33.9 12c1.2-1.4 2-3.3 1.8-5.2-1.7.1-3.8 1.1-5.1 2.5-1.1 1.3-2.1 3.2-1.8 5.1 1.9.1 3.9-.9 5.1-2.4"/>
  <g fill="#231f20">
    <path d="M66.6 38.7h-7.1l-1.7 5.1h-3l6.7-18.6h3.3l6.7 18.6h-3l-1.9-5.1zm-6.4-2.3h5.7l-2.8-8.2h-.1l-2.8 8.2zm25.1 1c0 4-2.1 6.5-5.4 6.5-2.6 0-4.6-1.9-4.7-4.8h0v-2h0c.3-2.8 2.3-4.7 4.8-4.7 3.3 0 5.3 2.6 5.3 5zm-13 5.1v-15.3h2.8v5.6h.1c.7-1.3 2.3-2.3 4.5-2.3 4.1 0 6.8 3.2 6.8 8 0 4.9-2.7 8.1-6.9 8.1-2.1 0-3.8-.9-4.6-2.4h-.1v2h-2.6v-.7zm21.3-5.1c0-4.4 2.4-7.2 6.1-7.2 3.6 0 6.1 2.8 6.1 7.2s-2.4 7.3-6.1 7.3c-3.7 0-6.1-2.8-6.1-7.3zm9.3 0c0-3.1-1.3-5-3.2-5s-3.2 1.9-3.2 5 1.3 5 3.2 5 3.2-1.8 3.2-5zm-51.6 0c0-4.4 2.4-7.2 6.1-7.2 3.6 0 6.1 2.8 6.1 7.2s-2.4 7.3-6.1 7.3c-3.7 0-6.1-2.8-6.1-7.3zm9.3 0c0-3.1-1.3-5-3.2-5s-3.2 1.9-3.2 5 1.3 5 3.2 5 3.2-1.8 3.2-5z"/>
    <path d="M58 25.1h2.9v18.7H58z"/>
  </g>
</svg>
