
<svg width="103" height="64" viewBox="0 0 103 64" fill="none" xmlns="http://www.w3.org/2000/svg">
  <path d="M37.95 22.5H27.95V24.8H37.95V22.5Z" fill="#5F6368"/>
  <path d="M24.55 27.6H31.25C31.05 26.2 30.05 25.3 28.55 25.3C27.15 25.3 25.95 26.2 24.55 27.6ZM31.45 29.4H24.45C24.95 31 26.25 31.9 28.25 31.9C29.75 31.9 30.95 31.4 31.65 30.4L32.85 32C31.85 33.4 30.15 34.1 28.15 34.1C25.05 34.1 22.55 32 22.55 29C22.55 26 25.05 23.9 28.35 23.9C31.45 23.9 33.95 26.2 33.95 29C33.95 29.2 33.95 29.3 31.45 29.4Z" fill="#5F6368"/>
  <path d="M43.45 24.1L35.35 24.1V33.9H37.55V30.7H40.15L42.65 33.9H45.25L42.55 30.5C44.15 30 45.15 28.7 45.15 26.9C45.15 25.2 44.15 24.1 43.45 24.1ZM42.85 26.8C42.85 27.7 42.25 28.3 41.15 28.3H37.55V25.7H41.15C42.25 25.7 42.85 26.1 42.85 26.8Z" fill="#5F6368"/>
  <path d="M51.35 23.9C48.15 23.9 45.75 26.1 45.75 29C45.75 32 48.15 34.1 51.35 34.1C54.35 34.1 56.75 32.2 56.75 29.2V29C56.75 25.9 54.35 23.9 51.35 23.9ZM51.35 26.2C53.05 26.2 54.45 27.4 54.45 29C54.45 30.7 53.15 31.9 51.35 31.9C49.45 31.9 48.15 30.6 48.15 29C48.15 27.4 49.45 26.2 51.35 26.2Z" fill="#5F6368"/>
  <path d="M65.85 23.9C63.45 23.9 61.85 25.4 61.85 27.7V33.9H64.05V28.1C64.05 26.7 64.85 26 66.05 26C67.25 26 68.05 26.7 68.05 28.1V33.9H70.25V28.1C70.25 26.7 71.05 26 72.35 26C73.55 26 74.35 26.7 74.35 28.1V33.9H76.65V27.5C76.65 25.3 75.05 23.9 72.65 23.9C71.25 23.9 70.05 24.5 69.35 25.5C68.75 24.5 67.65 23.9 65.85 23.9Z" fill="#5F6368"/>
  <path d="M85.25 33.9H82.75L78.95 23.9H81.45L83.95 31.1L86.45 23.9H88.95L85.25 33.9Z" fill="#5F6368"/>
  <path fill-rule="evenodd" clip-rule="evenodd" d="M58.75 34.1V23.9H61.15V34.1H58.75Z" fill="#5F6368"/>
  <path d="M79.25.6H22.45C12.25.6 3.95 8.9 3.95 19.1V43.1C3.95 53.3 12.25 61.6 22.45 61.6H79.25C89.45 61.6 97.75 53.3 97.75 43.1V19.1C97.75 8.9 89.45.6 79.25.6Z" fill="white"/>
  <path d="M79.25 1.6C85.24 1.6 90.97 4.01 95.2 8.25C99.44 12.48 101.85 18.21 101.85 24.2V38C101.85 43.99 99.44 49.72 95.2 53.95C90.97 58.19 85.24 60.6 79.25 60.6H22.45C16.46 60.6 10.73 58.19 6.5 53.95C2.26 49.72 -0.15 43.99 -0.15 38V24.2C-0.15 18.21 2.26 12.48 6.5 8.25C10.73 4.01 16.46 1.6 22.45 1.6H79.25ZM79.25 0.6H22.45C12.25 0.6 3.95 8.9 3.95 19.1V43.1C3.95 53.3 12.25 61.6 22.45 61.6H79.25C89.45 61.6 97.75 53.3 97.75 43.1V19.1C97.75 8.9 89.45 0.6 79.25 0.6Z" fill="#A1A3A5"/>
  <path fill-rule="evenodd" clip-rule="evenodd" d="M17.07 44.72L17.11 44.46C17.56 42.8 18.54 41.31 19.92 40.2C21.3 39.09 22.99 38.42 24.77 38.29L24.77 38.29L25.04 38.27L25.04 38C25.04 35.53 26.22 33.19 28.31 31.61C30.4 30.04 33.14 29.41 35.78 29.91C38.42 30.41 40.72 31.98 42.12 34.22C43.52 36.45 43.89 39.12 43.15 41.61L43.04 41.95L43.37 42.07C44.55 42.53 45.56 43.34 46.28 44.38C47 45.43 47.4 46.67 47.42 47.94C47.45 49.22 47.09 50.47 46.41 51.55C45.73 52.63 44.74 53.48 43.58 53.97H38.99C38.71 53.97 38.44 53.86 38.24 53.66C38.04 53.47 37.92 53.2 37.92 52.93C37.92 52.65 38.04 52.38 38.24 52.19C38.44 51.99 38.71 51.88 38.99 51.88H43.57C44.17 51.54 44.66 51.05 44.99 50.46C45.33 49.87 45.5 49.2 45.48 48.52C45.47 47.83 45.26 47.17 44.89 46.6C44.52 46.03 44 45.57 43.38 45.28L41.85 44.55L42.59 43.03C43.31 41.49 43.51 39.75 43.14 38.08C42.77 36.42 41.86 34.94 40.55 33.85C39.24 32.76 37.61 32.13 35.91 32.05C34.21 31.98 32.53 32.47 31.12 33.44C29.72 34.41 28.68 35.8 28.16 37.4L27.43 39.91L24.91 40.33C23.76 40.48 22.67 40.9 21.74 41.56C20.81 42.22 20.07 43.09 19.59 44.11L19.47 44.37C19.38 44.64 19.21 44.87 18.97 45.03C18.73 45.19 18.45 45.26 18.16 45.23C17.87 45.2 17.61 45.08 17.41 44.88C17.21 44.68 17.09 44.42 17.07 44.13L17.07 44.72ZM17.07 44.72L17.07 44.13L17.07 44.13L17.07 44.72Z" fill="url(#paint0_linear_7_1265)"/>
  <path d="M15.32 37.15L15.32 37.15L15.32 37.13C14.66 36.49 14.45 35.51 14.79 34.65C15.13 33.79 15.95 33.2 16.87 33.13C16.93 33.13 16.99 33.12 17.05 33.12C18.75 33.12 20.03 34.41 20.03 36.1C20.03 37.79 18.75 39.08 17.05 39.08C16.3 39.08 15.6 38.8 15.1 38.31L15.32 37.15Z" fill="#EA4335"/>
  <path d="M25.94 35.99L25.94 35.99L25.93 36.06C25.27 38.98 22.87 41.11 19.87 41.42C16.88 41.73 14.11 40.11 12.91 37.4L12.91 37.4L12.88 37.33C11.98 35.23 12.27 32.79 13.65 30.99C15.02 29.19 17.28 28.35 19.48 28.81C21.68 29.28 23.46 30.96 24.06 33.13C24.65 35.31 23.96 37.63 22.25 39.01L21.15 37.51L21.15 37.51L21.2 37.48C22.27 36.69 22.72 35.34 22.28 34.12C21.83 32.87 20.61 32.04 19.29 31.96C17.97 31.88 16.65 32.57 16.01 33.75C15.36 34.92 15.54 36.39 16.43 37.37L16.45 37.39L16.43 37.4C17.11 38.29 18.17 38.78 19.26 38.73C20.35 38.68 21.35 38.09 21.96 37.14L22.39 36.46L23.82 38.69C23.12 39.78 21.96 40.5 20.69 40.67C19.42 40.84 18.14 40.44 17.19 39.57L17.16 39.53L17.12 39.5C15.71 38.2 15.03 36.28 15.32 34.39C15.61 32.5 16.82 30.88 18.53 30.07C20.24 29.26 22.23 29.36 23.85 30.34C25.48 31.31 26.52 33.04 26.56 34.92L25.94 35.99ZM15.1 38.31L15.31 37.15L15.4 37.24L15.1 38.31Z" fill="#FBBC04"/>
  <path d="M21.9 46.71L21.89 46.71L21.85 46.75C20.81 47.75 19.42 48.3 17.99 48.27C16.56 48.24 15.19 47.65 14.19 46.6L14.17 46.58L14.15 46.55C12.25 44.34 12.35 41.07 14.37 38.96L14.43 39.03L14.37 38.96C16.39 36.85 19.66 36.75 21.76 38.76L21.81 38.82L21.76 38.76C22.37 39.34 22.85 40.07 23.15 40.88L21.72 41.37L21.72 41.37L21.69 41.29C21.44 40.29 20.79 39.44 19.89 38.93C19 38.42 17.95 38.3 16.97 38.58C15.99 38.87 15.18 39.53 14.72 40.44C14.25 41.35 14.19 42.42 14.53 43.38L14.54 43.43L14.57 43.47C15.14 44.39 16.09 44.98 17.15 45.05C18.21 45.12 19.24 44.66 19.92 43.85L20.42 43.24L21.9 45.29C21.28 46.08 20.42 46.63 19.47 46.86C18.52 47.09 17.53 46.97 16.66 46.53C15.8 46.09 15.12 45.35 14.73 44.46C14.35 43.56 14.28 42.55 14.56 41.61L14.57 41.57L14.57 41.54C14.93 40.26 15.8 39.2 16.97 38.61C18.14 38.01 19.49 37.94 20.71 38.4C21.93 38.87 22.92 39.83 23.43 41.04C23.94 42.25 23.93 43.61 23.4 44.81L23.38 44.85L23.36 44.9L21.9 46.71Z" fill="#4285F4"/>
  <path d="M27.65 48.3L27.65 48.3L27.6 48.37C26.01 50.54 23.04 51.26 20.55 50.08C18.04 48.88 16.64 46.09 17.26 43.39L18.77 43.68L18.77 43.68L18.76 43.73C18.31 45.6 19.28 47.53 21.09 48.33C22.9 49.13 25.01 48.65 26.29 47.07L26.33 47.01L26.35 46.96C26.82 46.01 26.94 44.9 26.66 43.87C26.38 42.84 25.74 41.98 24.86 41.44L24.8 41.4L24.74 41.37C23.61 40.95 22.35 41.07 21.32 41.69C20.29 42.32 19.61 43.36 19.45 44.54L17.94 44.29C18.16 42.56 19.13 41.02 20.59 40.13C22.05 39.25 23.82 39.09 25.42 39.69L25.47 39.72L25.52 39.74C26.84 40.52 27.8 41.82 28.21 43.34C28.61 44.86 28.42 46.45 27.68 47.81L27.65 48.3Z" fill="#34A853"/>
  <defs>
    <linearGradient id="paint0_linear_7_1265" x1="32.25" y1="29.88" x2="32.25" y2="53.97" gradientUnits="userSpaceOnUse">
      <stop offset="0" stop-color="#EA4335"/>
      <stop offset="0.19" stop-color="#EA4335"/>
      <stop offset="0.28" stop-color="#FBBC04"/>
      <stop offset="0.51" stop-color="#4285F4"/>
      <stop offset="0.73" stop-color="#34A853"/>
      <stop offset="1" stop-color="#188038"/>
    </linearGradient>
  </defs>
</svg>
